<svg class="icon" style="width: 1em;height: 1em;vertical-align: middle;fill: currentColor;overflow: hidden;" viewBox="0 0 1024 1024" version="1.1" xmlns="http://www.w3.org/2000/svg"><path d="M192 320C157.866667 320 128 290.133333 128 256s29.866667-64 64-64S256 221.866667 256 256s-29.866667 64-64 64zM341.333333 256c0-34.133333 29.866667-64 64-64h426.666667c34.133333 0 64 29.866667 64 64s-29.866667 64-64 64h-426.666667C371.2 320 341.333333 290.133333 341.333333 256zM192 832c-34.133333 0-64-29.866667-64-64s29.866667-64 64-64S256 733.866667 256 768s-29.866667 64-64 64zM341.333333 768c0-34.133333 29.866667-64 64-64h426.666667c34.133333 0 64 29.866667 64 64s-29.866667 64-64 64h-426.666667c-34.133333 0-64-29.866667-64-64z" fill="#A6AAAF" /><path d="M192 576c-34.133333 0-64-29.866667-64-64s29.866667-64 64-64S256 477.866667 256 512s-29.866667 64-64 64zM341.333333 512c0-34.133333 29.866667-64 64-64h426.666667c34.133333 0 64 29.866667 64 64s-29.866667 64-64 64h-426.666667c-34.133333 0-64-29.866667-64-64z" fill="#C6CAD0" /></svg>