<svg class="icon" style="width: 1em;height: 1em;vertical-align: middle;fill: currentColor;overflow: hidden;" viewBox="0 0 1024 1024" version="1.1" xmlns="http://www.w3.org/2000/svg"><path d="M180.705882 0a120.470588 120.470588 0 0 0-120.470588 120.470588v783.058824a120.470588 120.470588 0 0 0 120.470588 120.470588h662.588236a120.470588 120.470588 0 0 0 120.470588-120.470588V286.117647L677.647059 0H180.705882z" fill="#AF83FC" /><path d="M271.058824 361.411765a30.117647 30.117647 0 0 1 30.117647-30.117647h421.647058a30.117647 30.117647 0 1 1 0 60.235294H301.176471a30.117647 30.117647 0 0 1-30.117647-30.117647zM271.058824 542.117647a30.117647 30.117647 0 0 1 30.117647-30.117647h301.17647a30.117647 30.117647 0 1 1 0 60.235294H301.176471a30.117647 30.117647 0 0 1-30.117647-30.117647zM301.176471 692.705882a30.117647 30.117647 0 1 0 0 60.235294h240.941176a30.117647 30.117647 0 1 0 0-60.235294H301.176471z" fill="#FFFFFF" /><path d="M739.388235 284.611765a60.235294 60.235294 0 0 1-60.235294-60.235294L679.183059 0 963.764706 284.611765h-224.376471z" fill="#8457D1" /></svg>