<svg class="icon" style="width: 1em;height: 1em;vertical-align: middle;fill: currentColor;overflow: hidden;" viewBox="0 0 1024 1024" version="1.1" xmlns="http://www.w3.org/2000/svg"><path d="M832.2 127.9v766H192.7v-766h639.5m0-64H192.7c-35.3 0-64 28.7-64 64v766c0 35.3 28.7 64 64 64h639.5c35.3 0 64-28.7 64-64v-766c0-35.4-28.7-64-64-64z" fill="#8C98A6" /><path d="M287 114.7h32v813.7h-32z" fill="#8C98A6" /><path d="M189.995 227.763v-32h97.9v32zM189.999 327.16v-32h97.9v32zM190.002 426.557v-32h97.9v32zM190.005 525.953v-32h97.9v32zM190.008 625.35v-32h97.9v32zM190.015 824.144v-32h97.9v32zM190.011 724.747v-32h97.9v32zM734.02 227.787v-32h97.9v32zM734.023 327.184v-32h97.9v32zM734.026 426.58v-32h97.9v32zM734.03 525.978v-32h97.9v32zM734.033 625.374v-32h97.9v32zM733.039 824.168v-32h97.9v32zM734.036 724.771v-32h97.9v32z" fill="#8C98A6" /><path d="M703.8 106.9h32v813.7h-32zM581.1 542.8l-86.3 68.1c-23.3 18.3-57.4 1.8-57.4-27.8V430.8c0-29.6 34.2-46.2 57.4-27.8l86.3 68.1c23.2 18.2 23.2 53.4 0 71.7z" fill="#8C98A6" /><path d="M896.2 958.3H563.8v-176c0-35.3 28.7-64 64-64h268.4c35.3 0 64 28.7 64 64v112c0 35.4-28.7 64-64 64z" fill="#637684" /><path d="M694.9 771l54.6 142.8h-25l-13-35.8h-59.8l-13 35.8h-25L668.3 771h26.6z m9.6 87.8l-22.4-62.6h-0.8l-22.6 62.6h45.8zM751.9 771l39.2 116.4h0.6L830.9 771h25.4l-50.8 142.8h-28.2L726.5 771h25.4zM894.7 771v142.8h-23.4V771h23.4z" fill="#FFFFFF" /></svg>