<svg t="1726822519135" class="icon" viewBox="0 0 1024 1024" version="1.1" xmlns="http://www.w3.org/2000/svg" p-id="6017" width="200" height="200"><path d="M0 0h1024v1024H0z" fill="none" p-id="6018"></path><path d="M213.333333 405.333333h597.333334l85.333333 85.333334v234.666666H128V490.666667z" fill="#005E88" p-id="6019"></path><path d="M725.333333 896H298.666667a85.333333 85.333333 0 0 1-85.333334-85.333333V213.333333a85.333333 85.333333 0 0 1 85.333334-85.333333h341.333333l170.666667 170.666667v512a85.333333 85.333333 0 0 1-85.333334 85.333333z" fill="#EEF1FF" p-id="6020"></path><path d="M128 490.666667h768v256H128z" fill="#0092D3" p-id="6021"></path><path d="M640 128l170.666667 170.666667h-85.333334a85.333333 85.333333 0 0 1-85.333333-85.333334z" fill="#C4C8D9" p-id="6022"></path><path d="M442.005333 667.221333h-49.066666L382.634667 704h-31.786667l51.2-170.666667H433.066667l51.008 170.666667H452.266667z m-41.664-26.816h34.261334l-16.768-59.989333h-0.618667z m141.973334 17.344l1.877333 9.386667h0.618667l1.770666-9.024L579.605333 533.333333h32l-51.477333 170.666667h-31.253333l-51.456-170.666667h32zM658.88 704h-30.421333v-170.666667h30.421333z" fill="#FFFFFF" p-id="6023"></path></svg>