<svg t="1726822632941" class="icon" viewBox="0 0 1024 1024" version="1.1" xmlns="http://www.w3.org/2000/svg" p-id="6188" width="200" height="200"><path d="M0 0h1024v1024H0z" fill="none" p-id="6189"></path><path d="M213.333333 405.333333h597.333334l85.333333 85.333334v234.666666H128V490.666667z" fill="#730041" p-id="6190"></path><path d="M725.333333 896H298.666667a85.333333 85.333333 0 0 1-85.333334-85.333333V213.333333a85.333333 85.333333 0 0 1 85.333334-85.333333h341.333333l170.666667 170.666667v512a85.333333 85.333333 0 0 1-85.333334 85.333333z" fill="#EEF1FF" p-id="6191"></path><path d="M128 490.666667h768v256H128z" fill="#D30078" p-id="6192"></path><path d="M640 128l170.666667 170.666667h-85.333334a85.333333 85.333333 0 0 1-85.333333-85.333334z" fill="#C4C8D9" p-id="6193"></path><path d="M382.421333 659.136h0.618667l38.954667-125.696h39.68V704h-30.4v-116.458667h-0.618667L393.152 704h-20.629333L334.933333 587.2h-0.618666V704h-30.336v-170.56h39.893333z m137.6-17.066667v61.866667H489.6v-170.56h58.026667a55.466667 55.466667 0 0 1 41.173333 14.933333 53.589333 53.589333 0 0 1 14.933333 39.488 53.034667 53.034667 0 0 1-14.933333 39.296 55.786667 55.786667 0 0 1-41.152 14.933334z m0-26.389333h27.605334a23.658667 23.658667 0 0 0 19.2-7.722667 29.866667 29.866667 0 0 0 6.570666-19.861333 31.296 31.296 0 0 0-6.506666-20.330667 23.466667 23.466667 0 0 0-19.328-8.021333h-27.605334z m191.04 24.704h17.066667v26.389333h-17.066667v37.141334h-30.357333v-37.013334h-61.866667l-1.472-20.565333 62.933334-113.066667h30.72z m-66.133333 0h35.626667v-61.866667h-0.618667l-3.114667 7.616z" fill="#FFFFFF" p-id="6194"></path></svg>