<svg class="icon" style="width: 1em;height: 1em;vertical-align: middle;fill: currentColor;overflow: hidden;" viewBox="0 0 1024 1024" version="1.1" xmlns="http://www.w3.org/2000/svg"><path d="M298.666667 42.666667h409.002666a42.666667 42.666667 0 0 1 30.165334 12.501333l230.997333 230.997333a42.666667 42.666667 0 0 1 12.501333 30.165334V896a85.333333 85.333333 0 0 1-85.333333 85.333333H298.666667a85.333333 85.333333 0 0 1-85.333334-85.333333V128a85.333333 85.333333 0 0 1 85.333334-85.333333z" fill="#E599F7" /><path d="M981.333333 298.666667h-213.333333a42.666667 42.666667 0 0 1-42.666667-42.666667V42.666667l256 256z" fill="#BE4BDB" /><path d="M42.666667 426.666667m42.666666 0l725.333334 0q42.666667 0 42.666666 42.666666l0 298.666667q0 42.666667-42.666666 42.666667l-725.333334 0q-42.666667 0-42.666666-42.666667l0-298.666667q0-42.666667 42.666666-42.666666Z" fill="#BE4BDB" /><path d="M298.666667 725.333333v-170.666666h42.666666v170.666666H298.666667z m-85.333334 0v-170.666666H170.666667v170.666666H128v-213.333333h170.666667v42.666667H256v170.666666H213.333333z m170.666667 0v-213.333333h128v42.666667h42.666667v85.333333h-42.666667v-85.333333h-85.333333v85.333333h85.333333v42.666667h-85.333333v42.666666H384z m384 0h-128v-42.666666h85.333333v-42.666667h-42.666666v-42.666667h85.333333v128z m-128-42.666666h-42.666667v-128h42.666667v128z m0-170.666667h128v42.666667h-128v-42.666667z" fill="#FFFFFF" /></svg>