<svg class="icon" style="width: 1em;height: 1em;vertical-align: middle;fill: currentColor;overflow: hidden;" viewBox="0 0 1024 1024" version="1.1" xmlns="http://www.w3.org/2000/svg"><path d="M704 0H192a64 64 0 0 0-64 64v320h576a64 64 0 0 1 64 64v416a64 64 0 0 1-64 64H128v32a64 64 0 0 0 64 64h768a64 64 0 0 0 64-64V320z" fill="#EAEAEA" /><path d="M704 0v256a64 64 0 0 0 64 64h256z" fill="#434854" /><path d="M768 320l256 256V320H768z" opacity=".1" /><path d="M704 832a32 32 0 0 1-32 32H32a32 32 0 0 1-32-32V480a32 32 0 0 1 32-32h640a32 32 0 0 1 32 32z" fill="#CC7598" /><path d="M288 672h-80a16 16 0 0 0 0 32h48a32 32 0 0 1-32 32h-32a32 32 0 0 1-32-32v-96a32 32 0 0 1 32-32h32a32 32 0 0 1 32 32 16 16 0 0 0 32 0 64 64 0 0 0-64-64h-32a64 64 0 0 0-64 64v96a64 64 0 0 0 64 64h32a64 64 0 0 0 64-64 16 16 0 0 0 0-32z m96 80a16 16 0 0 1-16 16 16 16 0 0 1-16-16V560a16 16 0 0 1 16-16 16 16 0 0 1 16 16z m176-208h-96a16 16 0 0 0-16 16v192a16 16 0 0 0 32 0v-80h48a16 16 0 0 0 0-32h-48v-64h80a16 16 0 0 0 0-32z" fill="#FFFFFF" /></svg>