<svg class="icon" style="width: 1em;height: 1em;vertical-align: middle;fill: currentColor;overflow: hidden;" viewBox="0 0 1024 1024" version="1.1" xmlns="http://www.w3.org/2000/svg"><path d="M205.358 0c-14.38 0-27.53 2.405-39.505 7.164a95.64 95.64 0 0 0-32.34 21.646 108.689 108.689 0 0 0-22.72 33.67c-5.63 12.794-8.393 25.587-8.393 38.38v821.666c0 12.793 2.814 25.637 8.392 38.43 5.578 12.793 13.151 24.051 22.72 33.671 9.57 9.57 20.367 16.785 32.341 21.595 11.974 4.81 25.125 7.215 39.505 7.215h612.834c14.38 0 27.53-2.405 39.505-7.164 11.974-4.861 22.771-12.077 32.34-21.646 9.57-9.62 17.143-20.827 22.72-33.67 5.63-12.794 8.393-25.587 8.393-38.38V287.791L637.76 0H205.358z" fill="#FFECEE" /><path d="M740.052 287.842c-56.493 0-102.343-46.26-102.343-102.293V0l283.44 287.842H740.053z" fill="#FF3B53" opacity=".401" /><path d="M238.67 716.406c58.592 0 87.863-34.541 87.863-103.623V460.547h-58.848v159.4c0 30.191-10.388 45.338-31.01 45.338a27.582 27.582 0 0 1-21.288-9.108 48 48 0 0 1-11.104-24.819l-50.711 18.218c8.853 44.519 37.253 66.83 85.099 66.83z m193.788-4.605V608.843h88.528v-48.255h-88.528v-51.786h117.133v-48.255H373.867V711.8h58.591z m211.084 0V460.547h-58.54V711.8h58.54z m109.303 0V608.843h88.528v-48.255h-88.528v-51.786h117.133v-48.255H694.305V711.8h58.54z" fill="#FF3B53" /></svg>