<svg class="icon" style="width: 1em;height: 1em;vertical-align: middle;fill: currentColor;overflow: hidden;" viewBox="0 0 1024 1024" version="1.1" xmlns="http://www.w3.org/2000/svg"><path d="M901.850593 926.476283v48.761859a48.761858 48.761858 0 0 1-48.761859 48.761858H170.422718a48.761858 48.761858 0 0 1-48.761858-48.761858v-48.761859a48.761858 48.761858 0 0 0 48.761858 48.761859h682.666016a48.761858 48.761858 0 0 0 48.761859-48.761859z" fill="#C1C7D0" /><path d="M901.850593 926.476283a48.761858 48.761858 0 0 1-48.761859 48.761859H170.422718a48.761858 48.761858 0 0 1-48.761858-48.761859V48.762834a48.761858 48.761858 0 0 1 48.761858-48.761859h418.864363a48.761858 48.761858 0 0 1 34.620919 14.140939l263.801654 263.801654a48.761858 48.761858 0 0 1 14.140939 34.620919V926.476283z" fill="#EBECF0" /><path d="M24.137143 536.381417h975.237166v243.809291a48.761858 48.761858 0 0 1-48.761858 48.761859H72.899001a48.761858 48.761858 0 0 1-48.761858-48.761859v-243.809291z" fill="#5E6C84" /><path d="M121.66086 536.381417V438.8577l-97.523717 97.523717h97.523717zM901.850593 536.381417l0.975237-97.523717 97.036098 97.523717H901.850593z" fill="#172B4D" /><path d="M792.62403 752.884068a120.44179 120.44179 0 0 1-78.506592 29.257115 93.622768 93.622768 0 0 1-97.523717-97.523717 97.523717 97.523717 0 0 1 97.523717-97.523717 101.912284 101.912284 0 0 1 72.655169 25.356167l-20.967599 24.868548a74.118025 74.118025 0 0 0-52.662807-19.992362A63.878034 63.878034 0 0 0 650.727022 682.666992a62.902797 62.902797 0 0 0 63.878035 67.778983 77.043736 77.043736 0 0 0 45.348528-14.140939v-35.108538h-40.472342a7.801897 7.801897 0 0 1-7.801898-7.801897V682.666992a7.801897 7.801897 0 0 1 7.801898-7.801898h65.34089a7.801897 7.801897 0 0 1 7.801897 7.801898z m-249.173096-32.182827v-122.392264a7.801897 7.801897 0 0 1 7.801897-7.801897h17.066651a7.801897 7.801897 0 0 1 7.801897 7.801897v173.104597a7.801897 7.801897 0 0 1-7.801897 7.801897h-16.091414a7.801897 7.801897 0 0 1-6.339041-2.925711l-101.912284-131.169399v126.293213a7.801897 7.801897 0 0 1-7.801897 7.801897H419.108195a7.801897 7.801897 0 0 1-7.801897-7.801897v-173.104597a7.801897 7.801897 0 0 1 7.801897-7.801897h19.504744a7.801897 7.801897 0 0 1 6.339041 2.925711z m-199.436001-65.828508c0-22.430455-16.091413-34.133301-40.472342-34.133301h-39.009487v67.778983h38.521868c25.356166 0 40.959961-13.65332 40.959961-33.645682z m33.645683 0a66.316127 66.316127 0 0 1-75.580881 63.878034h-37.546631v52.662807a7.801897 7.801897 0 0 1-7.801897 7.801897h-17.554269a7.801897 7.801897 0 0 1-7.801897-7.801897v-173.104597a7.801897 7.801897 0 0 1 7.801897-7.801897h66.803746a63.390416 63.390416 0 0 1 71.679932 63.390415z" fill="#FFFFFF" /><path d="M901.850593 313.052106v6.82666h-263.801654a48.761858 48.761858 0 0 1-48.761858-48.761858V0.000975a48.761858 48.761858 0 0 1 34.620919 14.628558l264.289272 263.801653a48.761858 48.761858 0 0 1 13.653321 34.62092z" fill="#C1C7D0" /></svg>