<svg t="1726822085025" class="icon" viewBox="0 0 1024 1024" version="1.1" xmlns="http://www.w3.org/2000/svg" p-id="5846" width="200" height="200"><path d="M0 0h1024v1024H0z" fill="none" p-id="5847"></path><path d="M213.333333 405.333333h597.333334l85.333333 85.333334v234.666666H128V490.666667z" fill="#87004D" p-id="5848"></path><path d="M725.333333 896H298.666667a85.333333 85.333333 0 0 1-85.333334-85.333333V213.333333a85.333333 85.333333 0 0 1 85.333334-85.333333h341.333333l170.666667 170.666667v512a85.333333 85.333333 0 0 1-85.333334 85.333333z" fill="#EEF1FF" p-id="5849"></path><path d="M128 490.666667h768v256H128z" fill="#D22A8A" p-id="5850"></path><path d="M640 128l170.666667 170.666667h-85.333334a85.333333 85.333333 0 0 1-85.333333-85.333334z" fill="#C4C8D9" p-id="5851"></path><path d="M382.421333 647.381333h0.618667l38.954667-111.765333h39.68v151.658667h-30.4v-103.552h-0.618667l-37.504 103.552h-20.629333L334.933333 583.424h-0.618666v103.850667h-30.336v-151.658667h39.893333z m137.6-15.104v54.997334H489.6v-151.658667h58.026667a59.733333 59.733333 0 0 1 41.173333 13.333333 48.554667 48.554667 0 0 1 0 70.058667 60.096 60.096 0 0 1-41.152 13.226667z m0-23.466666h27.605334a25.258667 25.258667 0 0 0 19.2-6.869334 24.661333 24.661333 0 0 0 6.570666-17.664 25.813333 25.813333 0 0 0-6.506666-18.069333 24.874667 24.874667 0 0 0-19.328-7.125333h-27.605334z m151.978667-10.666667a21.098667 21.098667 0 0 0 16.085333-5.632 22.293333 22.293333 0 0 0 5.248-15.829333 19.477333 19.477333 0 0 0-5.525333-14.165334 20.629333 20.629333 0 0 0-15.424-5.632 20.138667 20.138667 0 0 0-14.016 5.098667 16.661333 16.661333 0 0 0-5.674667 13.013333h-29.44l-0.213333-0.618666a34.410667 34.410667 0 0 1 13.76-29.354667 54.762667 54.762667 0 0 1 35.52-11.562667 58.112 58.112 0 0 1 37.397333 11.093334 38.4 38.4 0 0 1 13.845334 31.829333 33.045333 33.045333 0 0 1-5.994667 19.2 41.088 41.088 0 0 1-16.405333 13.696 38.4 38.4 0 0 1 18.325333 13.589333 37.312 37.312 0 0 1 6.4 22.037334 39.509333 39.509333 0 0 1-14.933333 32.661333 66.368 66.368 0 0 1-74.858667 0.64 35.498667 35.498667 0 0 1-14.933333-31.552l0.213333-0.618667h29.525333a19.2 19.2 0 0 0 5.994667 14.314667 21.333333 21.333333 0 0 0 15.466667 5.781333 23.466667 23.466667 0 0 0 16.874666-6.144 20.586667 20.586667 0 0 0 6.4-15.530666 23.466667 23.466667 0 0 0-6.037333-17.770667 24.618667 24.618667 0 0 0-17.557333-5.717333h-16.874667v-22.826667z" fill="#FFFFFF" p-id="5852"></path></svg>