<svg class="icon" style="width: 1em;height: 1em;vertical-align: middle;fill: currentColor;overflow: hidden;" viewBox="0 0 1024 1024" version="1.1" xmlns="http://www.w3.org/2000/svg"><path d="M991.94 247.21v485.97H32.06V247.21c0-118.55 96.1-214.66 214.66-214.66h530.56c118.55 0.01 214.66 96.12 214.66 214.66z" fill="#FDF1F2" /><path d="M991.94 733.18v44.59c0 118.56-96.11 214.67-214.66 214.67H246.72c-118.56 0-214.66-96.11-214.66-214.67v-44.59h959.88z" fill="#EB1D25" /><path d="M316.21 888.74l15.54-1.36c0.74 6.23 2.45 11.34 5.14 15.33 2.69 3.99 6.86 7.22 12.52 9.68 5.66 2.46 12.03 3.69 19.11 3.69 6.28 0 11.83-0.93 16.64-2.8 4.81-1.87 8.39-4.43 10.74-7.68 2.35-3.25 3.52-6.81 3.52-10.66 0-3.91-1.13-7.32-3.4-10.23-2.26-2.92-6-5.36-11.21-7.34-3.34-1.3-10.73-3.33-22.16-6.07-11.43-2.75-19.44-5.33-24.03-7.77-5.94-3.11-10.37-6.98-13.29-11.59-2.92-4.61-4.37-9.78-4.37-15.5 0-6.28 1.78-12.16 5.35-17.62 3.57-5.46 8.77-9.61 15.62-12.44s14.46-4.25 22.84-4.25c9.23 0 17.36 1.49 24.41 4.46s12.47 7.34 16.26 13.12c3.79 5.77 5.83 12.31 6.11 19.61l-15.79 1.19c-0.85-7.87-3.72-13.81-8.62-17.83-4.9-4.02-12.13-6.03-21.69-6.03-9.96 0-17.22 1.83-21.78 5.48s-6.83 8.05-6.83 13.2c0 4.47 1.61 8.15 4.84 11.04 3.17 2.89 11.45 5.85 24.84 8.87 13.39 3.03 22.57 5.68 27.55 7.94 7.25 3.34 12.59 7.57 16.05 12.69 3.45 5.12 5.18 11.03 5.18 17.7 0 6.62-1.9 12.86-5.69 18.72-3.79 5.86-9.24 10.42-16.35 13.67-7.1 3.25-15.1 4.88-23.99 4.88-11.26 0-20.71-1.64-28.32-4.92-7.61-3.28-13.59-8.22-17.92-14.82-4.32-6.58-6.6-14.03-6.82-22.36zM466.49 928.74l-33.03-124.48h16.9l18.93 81.6c2.04 8.55 3.79 17.04 5.26 25.47 3.17-13.3 5.04-20.97 5.6-23.01l23.69-84.06h19.87l17.83 63c4.47 15.62 7.7 30.31 9.68 44.07 1.58-7.87 3.65-16.9 6.2-27.09l19.53-79.99h16.56l-34.13 124.48H543.5l-26.24-94.85c-2.21-7.92-3.51-12.79-3.91-14.6-1.3 5.72-2.52 10.59-3.65 14.6l-26.41 94.85h-16.8zM616.69 928.74V804.26h83.98v14.69h-67.5v38.55h58.42v14.69h-58.42v56.55h-16.48z" fill="#FFFFFF" /><path d="M623.91 286.01c9.86-3.41 20.87-4.93 31.49-4.93v-70.94c-48.18-1.52-94.08 20.11-123.29 58.04-12.14 15.93-22.76 33-30.73 51.59l-22.76 56.53c-5.69 17.07-12.9 34.52-20.86 50.83-5.69 13.66-12.9 25.8-21.62 37.94-7.21 9.86-17.07 17.83-28.07 22.76-12.14 5.69-25.8 8.72-39.45 8.72v71.7c48.18 1.52 93.7-20.11 123.29-58.04 9.48-12.9 17.83-26.55 25.04-40.97l19.35-45.14h83.08v-70.56h-54.25c4.17-10.62 9.86-20.87 16.31-30.73 4.93-8.73 11.38-15.93 18.59-22.38 7.19-6.46 15.16-11.77 23.88-14.42z m0 0" fill="#EB1D25" /></svg>