<?xml version="1.0" standalone="no"?><!DOCTYPE svg PUBLIC "-//W3C//DTD SVG 1.1//EN" "http://www.w3.org/Graphics/SVG/1.1/DTD/svg11.dtd"><svg t="1726822978058" class="icon" viewBox="0 0 1024 1024" version="1.1" xmlns="http://www.w3.org/2000/svg" p-id="18468" data-spm-anchor-id="a313x.search_index.0.i16.3d143a81iXPltM" xmlns:xlink="http://www.w3.org/1999/xlink" width="200" height="200"><path d="M374.03 63.95c-76.15 0-137.74 61.73-137.74 137.88v241.18H132.84c-18.95 0-34.44 15.48-34.44 34.44V684.2c0 18.95 15.48 34.43 34.44 34.43h103.45v103.31c0 76.15 61.59 137.88 137.74 137.88h413.49c76.15 0 137.88-61.73 137.88-137.88V339.56c0-36.52-34.11-71.68-94.07-130.6l-25.47-25.48-25.48-25.47c-58.91-59.96-94.03-94.07-130.6-94.07H374.03v0.01z m0 68.87h251.26c24.81 6.2 24.49 36.86 24.49 67.19v105.12c0 18.95 15.48 34.43 34.44 34.43h103.3c34.46 0 69.01-0.02 69.01 34.44v447.93c0 37.9-31.1 69.01-69.01 69.01H374.03c-37.9 0-68.87-31.11-68.87-69.01V718.62h344.62c18.95 0 34.44-15.48 34.44-34.43V477.44c0-18.95-15.48-34.44-34.44-34.44H305.16V201.82c0-37.9 30.96-69 68.87-69z m-87.63 375h99.1v15.12l-58.79 138.58h-20.16l59.63-136.06H286.4v-17.64z m120.94 38.63h72.23v15.12l-54.59 85.67h57.11v14.28h-78.11v-13.44l56.27-87.35h-52.91v-14.28z" fill="#666666" p-id="18469" data-spm-anchor-id="a313x.search_index.0.i17.3d143a81iXPltM" class="selected"></path></svg>