<svg class="icon" style="width: 1em;height: 1em;vertical-align: middle;fill: currentColor;overflow: hidden;" viewBox="0 0 1024 1024" version="1.1" xmlns="http://www.w3.org/2000/svg"><path d="M847.104 1024H176.896a76.8 76.8 0 0 1-74.496-78.848V78.848A76.8 76.8 0 0 1 176.896 0h521.216L921.6 236.288v708.864A76.8 76.8 0 0 1 847.104 1024z" fill="#F2ECF5" /><path d="M921.6 315.136H102.4V78.848A76.8 76.8 0 0 1 176.896 0h521.216L921.6 236.288z" fill="#A485BC" /><path d="M921.6 236.288H772.608a76.8 76.8 0 0 1-74.496-78.848V0l111.872 118.272z" fill="#F2ECF5" /><path d="M276.736 144.128v-1.536h-66.048v-17.408h86.016v17.92l-55.04 108.544h-20.48z m42.24 93.44l68.608-92.928v-1.536h-66.56v-17.92h91.136v14.08l-68.352 92.928v1.536h69.888v17.92h-94.72z" fill="#FFFFFF" /><path d="M425.728 463.36v409.6h172.544v-409.6z m151.04 140.032H512V646.4h64.768v43.264H512v43.008h64.768v43.264H512V819.2h-64.768v-43.264H512v-43.264h-64.768v-43.008H512V646.4h-64.768v-43.008H512v-43.008h-64.768V517.12H512v43.264h64.768z" fill="#A485BC" /></svg>