<svg class="icon" style="width: 1em;height: 1em;vertical-align: middle;fill: currentColor;overflow: hidden;" viewBox="0 0 1024 1024" version="1.1" xmlns="http://www.w3.org/2000/svg"><path d="M992.44 247.21v485.97H32.56V247.21c0-118.55 96.1-214.66 214.66-214.66h530.56c118.55 0.01 214.66 96.12 214.66 214.66z" fill="#F8F1E0" /><path d="M992.44 733.18v44.59c0 118.56-96.11 214.67-214.66 214.67H247.22c-118.56 0-214.66-96.11-214.66-214.67v-44.59h959.88z" fill="#E1C16C" /><path d="M367.36 879.91v-14.6l52.73-0.08v46.19c-8.1 6.45-16.45 11.31-25.05 14.56-8.61 3.25-17.44 4.88-26.49 4.88-12.23 0-23.34-2.62-33.33-7.85-9.99-5.24-17.53-12.81-22.63-22.71-5.09-9.91-7.64-20.97-7.64-33.2 0-12.11 2.53-23.42 7.6-33.92s12.35-18.3 21.87-23.39c9.51-5.09 20.46-7.64 32.86-7.64 9 0 17.14 1.46 24.41 4.37 7.27 2.92 12.98 6.98 17.11 12.18 4.13 5.21 7.27 12 9.42 20.38l-14.86 4.08c-1.87-6.34-4.19-11.32-6.96-14.94-2.77-3.62-6.74-6.52-11.89-8.7-5.15-2.18-10.87-3.27-17.15-3.27-7.53 0-14.04 1.15-19.53 3.44-5.49 2.29-9.92 5.31-13.29 9.04-3.37 3.74-5.99 7.84-7.85 12.31-3.17 7.7-4.75 16.05-4.75 25.05 0 11.1 1.91 20.38 5.73 27.85 3.82 7.47 9.38 13.02 16.69 16.64 7.3 3.62 15.06 5.43 23.27 5.43 7.13 0 14.09-1.37 20.89-4.12 6.79-2.75 11.94-5.67 15.45-8.79v-23.18h-36.61zM441.39 928.74v-15.28l63.77-79.73c4.53-5.66 8.83-10.58 12.91-14.77h-69.46v-14.69h89.16v14.69l-69.88 86.35-7.56 8.75h79.48v14.69h-98.42zM567.31 928.74V804.26h16.47v124.48h-16.47zM619.78 928.74V804.26h46.96c8.26 0 14.58 0.4 18.93 1.19 6.11 1.02 11.24 2.96 15.37 5.82 4.13 2.86 7.46 6.87 9.98 12.02 2.52 5.15 3.78 10.81 3.78 16.98 0 10.59-3.37 19.54-10.1 26.88-6.74 7.33-18.91 11-36.51 11h-31.93v50.61h-16.48z m16.47-65.3h32.18c10.64 0 18.2-1.98 22.67-5.94 4.47-3.96 6.71-9.54 6.71-16.73 0-5.21-1.32-9.67-3.95-13.37-2.63-3.71-6.1-6.16-10.4-7.34-2.77-0.74-7.9-1.1-15.37-1.1h-31.84v44.48z" fill="#FFFFFF" /><path d="M549.99 114.98h-74.91v52.29h74.91v-52.29z m0-82.21h-74.91v52.29h74.91V32.77z m4.79 310.88l-4.91-27.08v-37.14h-74.74v36.9l-4.95 27.38c-23.23 38.33-47.37 84.59-47.37 111.36 0 51.6 40.16 93.43 89.69 93.43 49.54 0 89.69-41.83 89.69-93.43 0-26.78-24.16-73.08-47.41-111.42z m-42.25 167.54c-28.88 0-52.29-25.1-52.29-56.06s23.41-56.06 52.29-56.06 52.29 25.1 52.29 56.06-23.41 56.06-52.29 56.06z m37.46-314h-74.91v52.29h74.91v-52.29z" fill="#E1C16C" /></svg>