<svg class="icon" style="width: 1em;height: 1em;vertical-align: middle;fill: currentColor;overflow: hidden;" viewBox="0 0 1024 1024" version="1.1" xmlns="http://www.w3.org/2000/svg"><path d="M923.136 969.557333H193.024v-909.653333h521.386667l208.725333 207.701333z" fill="#7CCDFF" /><path d="M474.282667 52.053333l-7.168 7.850667-128.170667 140.458667 135.338667-16.896-135.338667 235.861333 116.224 15.189333L350.890667 648.533333l107.349333-8.362666-157.354667 232.277333 135.338667-30.378667-135.338667 127.488 278.016-185.685333-185.344 18.090667 135.338667-240.981334-110.762667 30.890667 91.818667-197.802667-95.061333-13.482666L517.12 151.552l-99.84 9.386667z" fill="#4191FB" /><path d="M912.896 253.952l2.56 671.914667c0 15.530667-12.458667 27.989333-27.989333 27.989333H237.909333c-15.530667 0-27.989333-12.458667-27.989333-27.989333V96.938667c0-15.530667 12.458667-27.989333 27.989333-27.989334l493.397334-1.024-38.912-39.936H239.274667c-36.352 0-65.706667 29.354667-65.706667 65.706667v835.584c0 36.352 29.354667 65.706667 65.706667 65.706667h646.826666c36.352 0 65.706667-29.354667 65.706667-65.706667V293.888l-38.912-39.936z" fill="#4191FB" /><path d="M692.394667 222.72c0 39.424 31.914667 71.338667 71.338666 71.338667h188.245334L692.394667 27.989333v194.730667z" fill="#C7E2FF" /><path d="M557.568 482.304H158.72c-50.346667 0-91.136-40.789333-91.136-91.136v-60.245333c0-50.346667 40.789333-91.136 91.136-91.136h398.848c50.346667 0 91.136 40.789333 91.136 91.136v60.245333c0 50.346667-40.789333 91.136-91.136 91.136z" fill="#4191FB" /><path d="M121.856 443.221333v-155.818666h80.213333c14.848 0 26.282667 1.194667 34.133334 3.754666 7.850667 2.56 14.165333 7.338667 18.944 14.165334s7.168 15.36 7.168 25.258666c0 8.704-1.877333 16.042667-5.461334 22.357334-3.754667 6.314667-8.704 11.434667-15.189333 15.189333-4.096 2.56-9.728 4.608-16.896 6.144 5.802667 1.877333 9.898667 3.754667 12.458667 5.802667 1.706667 1.194667 4.266667 3.925333 7.68 8.192s5.632 7.338667 6.656 9.728l23.381333 45.056h-54.442667l-25.770666-47.616c-3.242667-6.144-6.144-10.24-8.704-11.946667-3.413333-2.389333-7.338667-3.584-11.776-3.584h-4.266667v63.146667H121.856v0.170666z m48.298667-92.501333h20.309333c2.218667 0 6.485333-0.682667 12.8-2.048 3.242667-0.682667 5.802667-2.218667 7.850667-4.949333 2.048-2.56 3.072-5.632 3.072-9.045334 0-4.949333-1.536-8.874667-4.778667-11.605333s-9.216-4.096-17.92-4.096H170.154667v31.744z" fill="#FFFFFF" /><path d="M386.218667 417.621333h-54.613334l-7.509333 25.770667H274.773333l58.538667-155.818667h52.565333l58.538667 155.818667h-50.346667l-7.850666-25.770667z m-10.069334-33.792l-17.237333-55.978666-17.066667 55.978666h34.304zM460.288 443.221333v-155.818666h80.213333c14.848 0 26.282667 1.194667 34.133334 3.754666s14.165333 7.338667 18.944 14.165334c4.778667 6.826667 7.168 15.36 7.168 25.258666 0 8.704-1.877333 16.042667-5.461334 22.357334-3.754667 6.314667-8.704 11.434667-15.189333 15.189333-4.096 2.56-9.728 4.608-16.896 6.144 5.802667 1.877333 9.898667 3.754667 12.458667 5.802667 1.706667 1.194667 4.266667 3.925333 7.68 8.192s5.632 7.338667 6.656 9.728l23.381333 45.056h-54.442667l-25.770666-47.616c-3.242667-6.144-6.144-10.24-8.704-11.946667-3.413333-2.389333-7.338667-3.584-11.776-3.584H508.586667v63.146667h-48.298667v0.170666z m48.298667-92.501333h20.309333c2.218667 0 6.485333-0.682667 12.8-2.048 3.242667-0.682667 5.802667-2.218667 7.850667-4.949333 2.048-2.56 3.072-5.632 3.072-9.045334 0-4.949333-1.536-8.874667-4.778667-11.605333s-9.216-4.096-17.92-4.096H508.586667v31.744z" fill="#FFFFFF" /></svg>