<svg t="1726822771114" class="icon" viewBox="0 0 1024 1024" version="1.1" xmlns="http://www.w3.org/2000/svg" p-id="6532" width="200" height="200"><path d="M0 0h1024v1024H0z" fill="none" p-id="6533"></path><path d="M213.333333 405.333333h597.333334l85.333333 85.333334v234.666666H128V490.666667z" fill="#4100B4" p-id="6534"></path><path d="M725.333333 896H298.666667a85.333333 85.333333 0 0 1-85.333334-85.333333V213.333333a85.333333 85.333333 0 0 1 85.333334-85.333333h341.333333l170.666667 170.666667v512a85.333333 85.333333 0 0 1-85.333334 85.333333z" fill="#EEF1FF" p-id="6535"></path><path d="M128 490.666667h768v256H128z" fill="#7E34FF" p-id="6536"></path><path d="M640 128l170.666667 170.666667h-85.333334a85.333333 85.333333 0 0 1-85.333333-85.333334z" fill="#C4C8D9" p-id="6537"></path><path d="M352.576 635.818667v68.266666H322.133333V533.546667h52.501334a58.026667 58.026667 0 0 1 40.533333 13.290666 47.637333 47.637333 0 0 1 14.698667 37.056 40.768 40.768 0 0 1-6.208 22.677334 44.181333 44.181333 0 0 1-18.069334 15.402666 32.789333 32.789333 0 0 1 19.328 14.933334 51.84 51.84 0 0 1 5.888 25.770666v12.522667a68.906667 68.906667 0 0 0 1.728 14.933333 21.333333 21.333333 0 0 0 5.866667 11.605334v2.389333h-31.36a19.882667 19.882667 0 0 1-5.354667-12.416 119.722667 119.722667 0 0 1-1.194666-16.789333v-11.989334a29.376 29.376 0 0 0-6.208-19.861333 21.994667 21.994667 0 0 0-17.557334-7.189333z m0-26.389334h21.568a26.261333 26.261333 0 0 0 19.072-6.101333 24.213333 24.213333 0 0 0 6.250667-18.048 26.602667 26.602667 0 0 0-6.4-18.624 23.722667 23.722667 0 0 0-18.496-6.912h-21.994667z m184.576 57.792h-49.066667L477.866667 704h-31.829334l51.050667-170.538667h31.232L579.264 704h-31.765333z m-41.664-26.816h34.282667l-16.768-59.968h-0.64z m128.746667-4.565333V704h-30.421334v-170.538667H646.4a58.026667 58.026667 0 0 1 40.533333 13.290667 47.637333 47.637333 0 0 1 14.592 37.056 40.768 40.768 0 0 1-6.208 22.677333 44.181333 44.181333 0 0 1-18.069333 15.402667 32.789333 32.789333 0 0 1 19.328 14.933333 51.84 51.84 0 0 1 5.888 25.770667v12.522667a68.906667 68.906667 0 0 0 1.728 14.933333 21.098667 21.098667 0 0 0 5.888 11.605333v2.389334h-31.36a19.882667 19.882667 0 0 1-5.354667-12.416 119.722667 119.722667 0 0 1-1.194666-16.789334v-11.989333a29.376 29.376 0 0 0-6.208-19.861333 21.994667 21.994667 0 0 0-17.557334-7.189334z m0-26.389333h21.568a26.282667 26.282667 0 0 0 19.072-6.101334 24.234667 24.234667 0 0 0 6.250666-18.048 26.624 26.624 0 0 0-6.4-18.624 23.744 23.744 0 0 0-18.325333-6.912h-22.165333z" fill="#FFFFFF" p-id="6538"></path></svg>