<svg t="1726822702631" class="icon" viewBox="0 0 1024 1024" version="1.1" xmlns="http://www.w3.org/2000/svg" p-id="6359" width="200" height="200"><path d="M0 0h1024v1024H0z" fill="none" p-id="6360"></path><path d="M213.333333 405.333333h597.333334l85.333333 85.333334v234.666666H128V490.666667z" fill="#4100B4" p-id="6361"></path><path d="M725.333333 896H298.666667a85.333333 85.333333 0 0 1-85.333334-85.333333V213.333333a85.333333 85.333333 0 0 1 85.333334-85.333333h341.333333l170.666667 170.666667v512a85.333333 85.333333 0 0 1-85.333334 85.333333z" fill="#EEF1FF" p-id="6362"></path><path d="M128 490.666667h768v256H128z" fill="#7E34FF" p-id="6363"></path><path d="M640 128l170.666667 170.666667h-85.333334a85.333333 85.333333 0 0 1-85.333333-85.333334z" fill="#C4C8D9" p-id="6364"></path><path d="M396.010667 677.76h69.589333V704h-105.429333v-17.792l67.498666-126.421333h-67.392v-26.389334h103.552v17.066667z m123.733333 26.24h-30.421333v-170.56h30.421333z m60.501333-61.866667V704h-30.4v-170.56h58.026667a55.466667 55.466667 0 0 1 41.152 14.933333 53.589333 53.589333 0 0 1 14.933333 39.488 53.013333 53.013333 0 0 1-14.933333 39.36 55.765333 55.765333 0 0 1-41.152 14.933334z m0-26.389333h27.733334a23.744 23.744 0 0 0 19.2-7.722667 29.866667 29.866667 0 0 0 6.570666-19.861333 31.317333 31.317333 0 0 0-6.570666-20.352 23.466667 23.466667 0 0 0-19.328-8.021333h-27.605334z" fill="#FFFFFF" p-id="6365"></path></svg>