<svg t="1726820913660" class="icon" viewBox="0 0 1024 1024" version="1.1" xmlns="http://www.w3.org/2000/svg" p-id="4651" width="200" height="200"><path d="M0 0h1024v1024H0z" fill="none" p-id="4652"></path><path d="M213.333333 405.333333h597.333334l85.333333 85.333334v234.666666H128V490.666667z" fill="#001C39" p-id="4653"></path><path d="M725.333333 896H298.666667a85.333333 85.333333 0 0 1-85.333334-85.333333V213.333333a85.333333 85.333333 0 0 1 85.333334-85.333333h341.333333l170.666667 170.666667v512a85.333333 85.333333 0 0 1-85.333334 85.333333z" fill="#EEF1FF" p-id="4654"></path><path d="M128 490.666667h768v256H128z" fill="#003771" p-id="4655"></path><path d="M640 128l170.666667 170.666667h-85.333334a85.333333 85.333333 0 0 1-85.333333-85.333334z" fill="#C4C8D9" p-id="4656"></path><path d="M314.133333 701.568v-165.717333h52.906667a59.733333 59.733333 0 0 1 45.824 19.413333 70.4 70.4 0 0 1 18.069333 49.770667v27.434666a70.037333 70.037333 0 0 1-18.048 49.792 60.010667 60.010667 0 0 1-45.824 19.2z m30.421334-140.096v114.602667h22.506666a28.757333 28.757333 0 0 0 24.170667-12.224 50.88 50.88 0 0 0 9.173333-31.338667v-27.733333a50.538667 50.538667 0 0 0-9.173333-31.189334 28.949333 28.949333 0 0 0-24.170667-12.16z m233.429333 72.256a73.386667 73.386667 0 0 1-17.6 50.368 62.634667 62.634667 0 0 1-91.456 0 73.578667 73.578667 0 0 1-17.493333-50.410667v-29.866666a73.578667 73.578667 0 0 1 17.450666-50.368 57.429333 57.429333 0 0 1 45.461334-19.968 58.538667 58.538667 0 0 1 45.930666 19.968 73.173333 73.173333 0 0 1 17.706667 50.368z m-30.314667-30.037333a53.482667 53.482667 0 0 0-8.853333-31.744 28.458667 28.458667 0 0 0-24.469333-12.544 27.52 27.52 0 0 0-24 12.394666 54.549333 54.549333 0 0 0-8.533334 31.744v30.037334a54.890667 54.890667 0 0 0 8.64 32 27.733333 27.733333 0 0 0 24.106667 12.437333 28.16 28.16 0 0 0 24.384-12.394667 54.570667 54.570667 0 0 0 8.746667-32z m168.128 43.029333l0.213334 0.682667a54.634667 54.634667 0 0 1-14.784 41.557333 57.024 57.024 0 0 1-42.026667 14.933333 55.637333 55.637333 0 0 1-44.032-19.2 72.533333 72.533333 0 0 1-16.768-49.578666v-32.896a73.962667 73.962667 0 0 1 16.362667-49.557334 53.546667 53.546667 0 0 1 42.922666-19.2 60.330667 60.330667 0 0 1 43.328 14.805334 53.482667 53.482667 0 0 1 15.210667 41.642666l-0.213333 0.682667h-29.589334a34.688 34.688 0 0 0-7.04-23.722667 27.733333 27.733333 0 0 0-21.717333-7.786666 24 24 0 0 0-21.333333 12.010666 56.661333 56.661333 0 0 0-7.658667 31.018667v33.109333a54.954667 54.954667 0 0 0 8.128 31.168 28.373333 28.373333 0 0 0 42.773333 4.266667 36.266667 36.266667 0 0 0 6.72-23.957333z" fill="#FFFFFF" p-id="4657"></path></svg>