<svg t="1726821036905" class="icon" viewBox="0 0 1024 1024" version="1.1" xmlns="http://www.w3.org/2000/svg" p-id="4820" width="200" height="200"><path d="M0 0h1024v1024H0z" fill="none" p-id="4821"></path><path d="M213.333333 405.333333h597.333334l85.333333 85.333334v234.666666H128V490.666667z" fill="#001C39" p-id="4822"></path><path d="M725.333333 896H298.666667a85.333333 85.333333 0 0 1-85.333334-85.333333V213.333333a85.333333 85.333333 0 0 1 85.333334-85.333333h341.333333l170.666667 170.666667v512a85.333333 85.333333 0 0 1-85.333334 85.333333z" fill="#EEF1FF" p-id="4823"></path><path d="M128 490.666667h768v256H128z" fill="#003771" p-id="4824"></path><path d="M640 128l170.666667 170.666667h-85.333334a85.333333 85.333333 0 0 1-85.333333-85.333334z" fill="#C4C8D9" p-id="4825"></path><path d="M246.272 701.546667v-165.717334h52.906667a59.733333 59.733333 0 0 1 45.824 19.413334 70.4 70.4 0 0 1 18.026666 49.792v27.434666a70.122667 70.122667 0 0 1-18.005333 49.770667 60.010667 60.010667 0 0 1-45.845333 19.2z m30.421333-140.096v114.602666h22.506667a28.778667 28.778667 0 0 0 24.170667-12.245333 50.901333 50.901333 0 0 0 9.173333-31.338667v-27.733333a50.56 50.56 0 0 0-9.173333-31.189333 28.949333 28.949333 0 0 0-24.170667-12.16z m233.429334 72.256a73.386667 73.386667 0 0 1-17.6 50.368 62.634667 62.634667 0 0 1-91.456 0 73.6 73.6 0 0 1-17.493334-50.410667v-29.866667a73.621333 73.621333 0 0 1 17.493334-50.368 57.429333 57.429333 0 0 1 45.461333-19.968 58.538667 58.538667 0 0 1 45.930667 19.968 73.173333 73.173333 0 0 1 17.706666 50.368z m-30.314667-30.037334a53.482667 53.482667 0 0 0-8.853333-31.744 28.458667 28.458667 0 0 0-24.469334-12.544 27.541333 27.541333 0 0 0-24.085333 12.437334 54.528 54.528 0 0 0-8.533333 31.850666v30.037334a54.912 54.912 0 0 0 8.64 32 27.733333 27.733333 0 0 0 24.170666 12.394666 28.16 28.16 0 0 0 24.384-12.394666 54.570667 54.570667 0 0 0 8.746667-32z m168.128 43.029334l0.213333 0.682666a54.528 54.528 0 0 1-14.805333 41.557334 57.066667 57.066667 0 0 1-41.962667 14.933333 55.658667 55.658667 0 0 1-44.074666-19.2 72.533333 72.533333 0 0 1-16.768-49.578667v-32.896a73.962667 73.962667 0 0 1 16.362666-49.557333 53.546667 53.546667 0 0 1 42.922667-19.2 60.352 60.352 0 0 1 43.328 14.805333 53.482667 53.482667 0 0 1 15.210667 41.642667l-0.213334 0.682667H618.666667a34.709333 34.709333 0 0 0-7.04-23.722667 27.733333 27.733333 0 0 0-21.717334-7.786667 23.978667 23.978667 0 0 0-21.333333 12.010667 56.789333 56.789333 0 0 0-7.722667 30.997333v33.109334a55.061333 55.061333 0 0 0 8.064 31.189333 28.416 28.416 0 0 0 42.816 4.266667 36.266667 36.266667 0 0 0 6.72-23.978667z m75.626667-52.117334l28.437333-58.730666h35.370667l-45.013334 82.176 47.616 83.541333h-36.736l-29.269333-59.733333-29.290667 59.733333h-35.498666l46.144-83.541333-45.013334-82.154667h35.136z" fill="#FFFFFF" p-id="4826"></path></svg>