<svg t="1726820133489" class="icon" viewBox="0 0 1024 1024" version="1.1" xmlns="http://www.w3.org/2000/svg" p-id="4305" width="200" height="200">
  <path d="M0 0h1024v1024H0z" fill="none" p-id="4306" data-spm-anchor-id="a313x.collections_detail.0.i36.34ce3a81Wqk6VP" class="selected"></path>
  <path d="M213.333333 405.333333h597.333334l85.333333 85.333334v256H128V490.666667z" fill="#AA0000" p-id="4307"></path>
  <path d="M725.333333 896H298.666667a85.333333 85.333333 0 0 1-85.333334-85.333333V213.333333a85.333333 85.333333 0 0 1 85.333334-85.333333h341.333333l170.666667 170.666667v512a85.333333 85.333333 0 0 1-85.333334 85.333333z" fill="#EEF1FF" p-id="4308"></path>
  <path d="M128 490.666667h768v256H128z" fill="#FF3333" p-id="4309"></path>
  <path d="M640 128l170.666667 170.666667h-85.333334a85.333333 85.333333 0 0 1-85.333333-85.333334z" fill="#C4C8D9" p-id="4310"></path>
  <path d="M358.570667 642.133333V704h-30.421334v-170.517333h58.048a55.466667 55.466667 0 0 1 41.152 14.933333 53.568 53.568 0 0 1 14.933334 39.488 53.013333 53.013333 0 0 1-14.933334 39.36 55.786667 55.786667 0 0 1-41.152 14.933333z m0-26.389333h27.733333a23.701333 23.701333 0 0 0 19.2-7.722667 29.866667 29.866667 0 0 0 6.570667-19.861333 31.317333 31.317333 0 0 0-6.570667-20.330667 23.466667 23.466667 0 0 0-19.2-8.021333h-27.733333z m105.514666 88.213333v-170.517333h52.928a59.008 59.008 0 0 1 45.824 19.989333 73.664 73.664 0 0 1 18.026667 51.2v28.224a73.429333 73.429333 0 0 1-18.026667 51.2 59.2 59.2 0 0 1-45.824 19.861334z m30.421334-144.170666v117.930666h22.506666a28.522667 28.522667 0 0 0 24.170667-12.586666 53.461333 53.461333 0 0 0 9.173333-32.256v-28.437334a53.098667 53.098667 0 0 0-9.173333-32 28.672 28.672 0 0 0-24.170667-12.544z m199.381333 73.322666h-58.24v70.848h-30.4v-170.517333h99.264v26.389333h-68.864v46.933334h58.24z" fill="#FFFFFF" p-id="4311"></path>
</svg>