<svg t="1726821227299" class="icon" viewBox="0 0 1024 1024" version="1.1" xmlns="http://www.w3.org/2000/svg" p-id="4989" width="200" height="200"><path d="M0 0h1024v1024H0z" fill="none" p-id="4990"></path><path d="M213.333333 405.333333h597.333334l85.333333 85.333334v234.666666H128V490.666667z" fill="#0600AB" p-id="4991"></path><path d="M725.333333 896H298.666667a85.333333 85.333333 0 0 1-85.333334-85.333333V213.333333a85.333333 85.333333 0 0 1 85.333334-85.333333h341.333333l170.666667 170.666667v512a85.333333 85.333333 0 0 1-85.333334 85.333333z" fill="#EEF1FF" p-id="4992"></path><path d="M128 490.666667h768v256H128z" fill="#3B34FF" p-id="4993"></path><path d="M640 128l170.666667 170.666667h-85.333334a85.333333 85.333333 0 0 1-85.333333-85.333334z" fill="#C4C8D9" p-id="4994"></path><path d="M359.232 642.154667v61.866666h-30.4v-170.56h58.026667a55.466667 55.466667 0 0 1 41.152 14.933334 53.589333 53.589333 0 0 1 14.933333 39.488 53.013333 53.013333 0 0 1-14.933333 39.36 55.786667 55.786667 0 0 1-41.152 14.933333z m0-26.389334h27.605333a23.701333 23.701333 0 0 0 19.2-7.722666 29.866667 29.866667 0 0 0 6.570667-19.861334 31.296 31.296 0 0 0-6.506667-20.330666 23.466667 23.466667 0 0 0-19.328-8.021334h-27.626666z m135.936 26.389334v61.866666h-30.4v-170.56h58.005333a55.466667 55.466667 0 0 1 41.152 14.933334 53.568 53.568 0 0 1 14.933334 39.488 53.013333 53.013333 0 0 1-14.933334 39.36 55.786667 55.786667 0 0 1-41.152 14.933333z m0-26.389334h27.605333a23.68 23.68 0 0 0 19.2-7.722666 29.866667 29.866667 0 0 0 6.570667-19.861334 31.296 31.296 0 0 0-6.4-20.330666 23.466667 23.466667 0 0 0-19.328-8.021334h-27.733333z m211.2-56h-43.264V704h-30.421333v-144.213333h-42.666667v-26.389334h116.416z" fill="#FFFFFF" p-id="4995"></path></svg>