<?xml version="1.0" standalone="no"?><!DOCTYPE svg PUBLIC "-//W3C//DTD SVG 1.1//EN" "http://www.w3.org/Graphics/SVG/1.1/DTD/svg11.dtd"><svg t="1726821976566" class="icon" viewBox="0 0 1024 1024" version="1.1" xmlns="http://www.w3.org/2000/svg" p-id="15807" xmlns:xlink="http://www.w3.org/1999/xlink" width="200" height="200"><path d="M215.578947 107.789474h404.210527l242.526315 242.526315v512a53.894737 53.894737 0 0 1-53.894736 53.894737H215.578947a53.894737 53.894737 0 0 1-53.894736-53.894737V161.684211a53.894737 53.894737 0 0 1 53.894736-53.894737z" fill="#99B7D2" p-id="15808"></path><path d="M384.943158 624.855579h-43.358316V754.526316h-25.061053v-129.670737h-43.250526V603.621053h111.669895zM519.787789 754.526316h-29.992421l-30.935579-55.376842a55.619368 55.619368 0 0 1-3.045052-7.168H455.410526q-0.943158 2.317474-3.152842 7.168L420.378947 754.526316h-30.261894l49.475368-75.88379-45.487158-75.021473h30.639158l27.270737 50.903579q2.694737 5.066105 4.742737 10.105263h0.323368q3.045053-6.629053 5.389474-10.536421l28.16-50.472421h28.213895l-46.511158 74.805894z m121.802106-129.670737H598.231579V754.526316h-25.061053v-129.670737h-43.250526V603.621053h111.696842z" fill="#FFFFFF" p-id="15809"></path><path d="M619.654737 134.736842l242.526316 215.578947v20.641685h-194.479158a40.205474 40.205474 0 0 1-28.483369-11.479579 53.221053 53.221053 0 0 1-19.725473-31.905684z" fill="#777777" p-id="15810"></path><path d="M619.789474 107.789474l242.526315 242.526315h-209.030736a44.624842 44.624842 0 0 1-26.758737-9.269894 39.181474 39.181474 0 0 1-6.736842-26.246737z" fill="#FFFFFF" p-id="15811"></path></svg>