<svg t="1726821294487" class="icon" viewBox="0 0 1024 1024" version="1.1" xmlns="http://www.w3.org/2000/svg" p-id="5160" width="200" height="200"><path d="M0 0h1024v1024H0z" fill="none" p-id="5161"></path><path d="M213.333333 405.333333h597.333334l85.333333 85.333334v234.666666H128V490.666667z" fill="#0D650D" p-id="5162"></path><path d="M725.333333 896H298.666667a85.333333 85.333333 0 0 1-85.333334-85.333333V213.333333a85.333333 85.333333 0 0 1 85.333334-85.333333h341.333333l170.666667 170.666667v512a85.333333 85.333333 0 0 1-85.333334 85.333333z" fill="#EEF1FF" p-id="5163"></path><path d="M128 490.666667h768v256H128z" fill="#47B347" p-id="5164"></path><path d="M640 128l170.666667 170.666667h-85.333334a85.333333 85.333333 0 0 1-85.333333-85.333334z" fill="#C4C8D9" p-id="5165"></path><path d="M386.538667 594.474667l28.437333-58.794667h35.413333L405.333333 617.941333l47.658667 83.605334h-36.821333l-29.269334-59.733334-29.269333 59.733334h-35.541333l46.144-83.605334-44.970667-82.24h35.2z m112.490666 81.642666h67.925334v25.429334h-98.346667v-165.845334h30.421333z m167.189334-17.770666a20.309333 20.309333 0 0 0-6.101334-15.381334 58.922667 58.922667 0 0 0-21.333333-10.944 117.333333 117.333333 0 0 1-39.850667-20.394666 40.042667 40.042667 0 0 1-13.589333-32 41.557333 41.557333 0 0 1 15.317333-33.322667 65.6 65.6 0 0 1 79.594667 1.066667 45.312 45.312 0 0 1 14.933333 36.458666l-0.213333 0.682667H665.386667a25.450667 25.450667 0 0 0-6.869334-19.072 26.581333 26.581333 0 0 0-19.2-6.677333 24 24 0 0 0-17.386666 5.930666 20.053333 20.053333 0 0 0-6.144 15.146667 17.066667 17.066667 0 0 0 6.677333 13.845333 85.952 85.952 0 0 0 23.018667 11.456 95.765333 95.765333 0 0 1 38.122666 20.224 43.306667 43.306667 0 0 1 13.12 32.874667 41.024 41.024 0 0 1-15.210666 33.6 62.037333 62.037333 0 0 1-40.298667 12.053333 67.392 67.392 0 0 1-42.026667-13.312 45.546667 45.546667 0 0 1-17.066666-39.658666l0.277333-0.682667h29.44a27.392 27.392 0 0 0 7.914667 21.653333 31.317333 31.317333 0 0 0 21.461333 6.997334 27.477333 27.477333 0 0 0 18.602667-5.568 18.816 18.816 0 0 0 6.4-14.933334z" fill="#FFFFFF" p-id="5166"></path></svg>