<svg t="1726821329013" class="icon" viewBox="0 0 1024 1024" version="1.1" xmlns="http://www.w3.org/2000/svg" p-id="5331" width="200" height="200"><path d="M0 0h1024v1024H0z" fill="none" p-id="5332"></path><path d="M213.333333 405.333333h597.333334l85.333333 85.333334v234.666666H128V490.666667z" fill="#0D650D" p-id="5333"></path><path d="M725.333333 896H298.666667a85.333333 85.333333 0 0 1-85.333334-85.333333V213.333333a85.333333 85.333333 0 0 1 85.333334-85.333333h341.333333l170.666667 170.666667v512a85.333333 85.333333 0 0 1-85.333334 85.333333z" fill="#EEF1FF" p-id="5334"></path><path d="M128 490.666667h768v256H128z" fill="#47B347" p-id="5335"></path><path d="M640 128l170.666667 170.666667h-85.333334a85.333333 85.333333 0 0 1-85.333333-85.333334z" fill="#C4C8D9" p-id="5336"></path><path d="M318.677333 594.538667l28.437334-58.752h35.413333l-45.013333 82.218666 47.616 83.562667h-36.778667l-29.269333-59.733333-29.269334 59.733333H254.293333l46.144-83.562667-44.992-82.197333h35.2z m112.490667 81.6h67.925333v25.408h-98.346666v-165.76h30.421333z m167.189333-17.770667a20.288 20.288 0 0 0-6.101333-15.36 59.050667 59.050667 0 0 0-21.333333-10.944 117.184 117.184 0 0 1-39.914667-20.458667 40.021333 40.021333 0 0 1-13.589333-32 41.514667 41.514667 0 0 1 15.317333-33.322666 65.514667 65.514667 0 0 1 79.530667 1.066666 45.269333 45.269333 0 0 1 14.933333 36.437334l-0.213333 0.682666h-29.482667a25.450667 25.450667 0 0 0-6.869333-19.072 26.602667 26.602667 0 0 0-19.2-6.656 24 24 0 0 0-17.386667 5.930667 20.053333 20.053333 0 0 0-6.144 15.125333 17.066667 17.066667 0 0 0 6.677333 13.824 85.952 85.952 0 0 0 23.018667 11.456 95.786667 95.786667 0 0 1 38.122667 20.224 43.285333 43.285333 0 0 1 13.12 32.853334 40.981333 40.981333 0 0 1-15.210667 33.578666 62.101333 62.101333 0 0 1-40.298667 12.138667 67.370667 67.370667 0 0 1-42.026666-13.269333 45.525333 45.525333 0 0 1-17.066667-39.637334l0.234667-0.725333h29.504a27.349333 27.349333 0 0 0 7.914666 21.632 31.338667 31.338667 0 0 0 21.461334 6.997333 27.477333 27.477333 0 0 0 18.602666-5.568 18.816 18.816 0 0 0 6.4-14.933333z m106.453334-63.829333l28.437333-58.752h35.413333l-44.992 82.218666 47.594667 83.562667H734.506667l-29.269334-59.733333-29.269333 59.733333h-35.52l46.144-83.562667-45.013333-82.197333h35.2z" fill="#FFFFFF" p-id="5337"></path></svg>